<svg xmlns="http://www.w3.org/2000/svg" width="1000" height="650" viewBox="0 0 1000 650" role="img" aria-labelledby="title desc">
  <title id="title">Mapa de Bogotá</title>
  <desc id="desc">Mapa esquemático de Bogotá con cuadrícula vial y zonas destacadas.</desc>
  <defs>
    <linearGradient id="bg" x1="0" y1="0" x2="0" y2="1">
      <stop offset="0%" stop-color="#ebf8ff" />
      <stop offset="100%" stop-color="#d9f0ff" />
    </linearGradient>
  </defs>
  <rect width="1000" height="650" fill="url(#bg)" />

  <g stroke="#9fb8d5" stroke-width="3" opacity="0.8">
    <path d="M120 120 L880 120" />
    <path d="M100 200 L900 200" />
    <path d="M80 280 L920 280" />
    <path d="M70 360 L930 360" />
    <path d="M90 440 L910 440" />
    <path d="M110 520 L890 520" />

    <path d="M180 80 L180 570" />
    <path d="M280 60 L280 590" />
    <path d="M380 55 L380 595" />
    <path d="M500 50 L500 600" />
    <path d="M620 55 L620 595" />
    <path d="M720 60 L720 590" />
    <path d="M820 80 L820 570" />
  </g>

  <g fill="#7ed957" opacity="0.75">
    <ellipse cx="250" cy="470" rx="95" ry="55" />
    <ellipse cx="760" cy="460" rx="85" ry="45" />
    <ellipse cx="500" cy="165" rx="70" ry="40" />
  </g>

  <path d="M320 130 L650 110 L820 250 L785 430 L560 560 L360 520 L210 380 L220 220 Z"
        fill="#ffd36f" stroke="#e89d0c" stroke-width="8" opacity="0.9" />

  <circle cx="520" cy="330" r="26" fill="#d7263d" />
  <circle cx="520" cy="330" r="10" fill="#ffffff" />

  <text x="500" y="610" text-anchor="middle" font-family="Arial, sans-serif" font-size="34" fill="#0b315e" font-weight="700">
    Bogotá, Colombia
  </text>
</svg>
